<mxfile host="app.diagrams.net" modified="2024-05-11T14:31:20.329Z" agent="Mozilla/5.0 (Windows NT 10.0; Win64; x64; rv:125.0) Gecko/20100101 Firefox/125.0" etag="HT-jQU4Pcc-p85udHO4H" version="24.3.1" type="device">
  <diagram name="Page-1" id="03018318-947c-dd8e-b7a3-06fadd420f32">
    <mxGraphModel dx="1621" dy="910" grid="1" gridSize="10" guides="1" tooltips="1" connect="1" arrows="1" fold="1" page="1" pageScale="1" pageWidth="1100" pageHeight="850" background="none" math="0" shadow="0">
      <root>
        <mxCell id="0" />
        <mxCell id="1" parent="0" />
        <mxCell id="677b7b8949515195-1" value="" style="whiteSpace=wrap;html=1;rounded=0;shadow=0;labelBackgroundColor=none;strokeColor=default;strokeWidth=1;fillColor=none;fontFamily=Verdana;fontSize=12;fontColor=#000000;align=center;comic=1;" parent="1" vertex="1">
          <mxGeometry x="20" y="20" width="1060" height="810" as="geometry" />
        </mxCell>
        <mxCell id="677b7b8949515195-16" value="" style="verticalLabelPosition=bottom;shadow=0;dashed=0;align=center;html=1;verticalAlign=top;strokeWidth=1;shape=mxgraph.mockup.graphics.simpleIcon;strokeColor=#999999;rounded=0;labelBackgroundColor=none;fontFamily=Verdana;fontSize=14;fontColor=#000000;comic=1;" parent="1" vertex="1">
          <mxGeometry x="20" y="140" width="1060" height="410" as="geometry" />
        </mxCell>
        <mxCell id="677b7b8949515195-2" value="&lt;font style=&quot;font-size: 24px;&quot;&gt;Логотип&lt;/font&gt;" style="whiteSpace=wrap;html=1;rounded=0;shadow=0;labelBackgroundColor=none;strokeWidth=1;fontFamily=Verdana;fontSize=28;align=center;comic=1;" parent="1" vertex="1">
          <mxGeometry x="40" y="40" width="110" height="90" as="geometry" />
        </mxCell>
        <mxCell id="677b7b8949515195-4" value="&lt;div align=&quot;center&quot;&gt;Поле текста&lt;br&gt;&lt;/div&gt;" style="text;html=1;points=[];align=center;verticalAlign=top;spacingTop=-4;fontSize=14;fontFamily=Verdana;strokeColor=default;" parent="1" vertex="1">
          <mxGeometry x="160" y="40" width="170" height="90" as="geometry" />
        </mxCell>
        <mxCell id="677b7b8949515195-5" value="Соцсети" style="text;html=1;points=[];align=left;verticalAlign=top;spacingTop=-4;fontSize=14;fontFamily=Verdana;strokeColor=default;" parent="1" vertex="1">
          <mxGeometry x="860" y="40" width="60" height="50" as="geometry" />
        </mxCell>
        <mxCell id="677b7b8949515195-6" value="Соцсети" style="text;html=1;points=[];align=left;verticalAlign=top;spacingTop=-4;fontSize=14;fontFamily=Verdana;strokeColor=default;" parent="1" vertex="1">
          <mxGeometry x="930" y="40" width="60" height="50" as="geometry" />
        </mxCell>
        <mxCell id="677b7b8949515195-7" value="Соцсети" style="text;html=1;points=[];align=left;verticalAlign=top;spacingTop=-4;fontSize=14;fontFamily=Verdana;strokeColor=default;" parent="1" vertex="1">
          <mxGeometry x="1000" y="40" width="60" height="50" as="geometry" />
        </mxCell>
        <mxCell id="677b7b8949515195-9" value="" style="line;strokeWidth=1;html=1;rounded=0;shadow=0;labelBackgroundColor=none;fillColor=none;fontFamily=Verdana;fontSize=14;fontColor=#000000;align=center;comic=1;" parent="1" vertex="1">
          <mxGeometry x="20" y="140" width="1060" height="10" as="geometry" />
        </mxCell>
        <mxCell id="677b7b8949515195-10" value="" style="whiteSpace=wrap;html=1;rounded=0;shadow=0;labelBackgroundColor=none;strokeWidth=1;fillColor=none;fontFamily=Verdana;fontSize=12;align=center;comic=1;" parent="1" vertex="1">
          <mxGeometry x="30" y="160" width="210" height="380" as="geometry" />
        </mxCell>
        <mxCell id="677b7b8949515195-11" value="Страница 1" style="text;html=1;points=[];align=left;verticalAlign=top;spacingTop=-4;fontSize=14;fontFamily=Verdana" parent="1" vertex="1">
          <mxGeometry x="50" y="270" width="60" height="20" as="geometry" />
        </mxCell>
        <mxCell id="677b7b8949515195-12" value="Страница 2" style="text;html=1;points=[];align=left;verticalAlign=top;spacingTop=-4;fontSize=14;fontFamily=Verdana" parent="1" vertex="1">
          <mxGeometry x="50" y="335" width="60" height="20" as="geometry" />
        </mxCell>
        <mxCell id="677b7b8949515195-13" value="Страница 3" style="text;html=1;points=[];align=left;verticalAlign=top;spacingTop=-4;fontSize=14;fontFamily=Verdana" parent="1" vertex="1">
          <mxGeometry x="50" y="405" width="60" height="20" as="geometry" />
        </mxCell>
        <mxCell id="ixnoVTDkgGgLD97-5TPm-2" value="&lt;font style=&quot;font-size: 24px;&quot;&gt;Банер&lt;br&gt;&lt;/font&gt;" style="text;html=1;points=[];align=left;verticalAlign=top;spacingTop=-4;fontSize=14;fontFamily=Verdana" vertex="1" parent="1">
          <mxGeometry x="510" y="327.5" width="80" height="35" as="geometry" />
        </mxCell>
        <mxCell id="ixnoVTDkgGgLD97-5TPm-3" value="&lt;div align=&quot;center&quot;&gt;Поле текста&lt;br&gt;&lt;/div&gt;" style="text;html=1;points=[];align=center;verticalAlign=top;spacingTop=-4;fontSize=14;fontFamily=Verdana;strokeColor=default;" vertex="1" parent="1">
          <mxGeometry x="320" y="600" width="480" height="90" as="geometry" />
        </mxCell>
        <mxCell id="ixnoVTDkgGgLD97-5TPm-4" value="Страница 2" style="text;html=1;points=[];align=center;verticalAlign=top;spacingTop=-4;fontSize=14;fontFamily=Verdana;strokeColor=default;" vertex="1" parent="1">
          <mxGeometry x="488" y="710" width="125" height="40" as="geometry" />
        </mxCell>
        <mxCell id="ixnoVTDkgGgLD97-5TPm-5" value="Подвал" style="text;html=1;points=[];align=center;verticalAlign=top;spacingTop=-4;fontSize=14;fontFamily=Verdana;strokeColor=default;" vertex="1" parent="1">
          <mxGeometry x="20" y="780" width="1060" height="50" as="geometry" />
        </mxCell>
      </root>
    </mxGraphModel>
  </diagram>
</mxfile>
